{"title":"Stations.of.the.Cross.2014.DVDRip.XviD.HORiZON-ArtSubs","uid":11400908,"size":1584141224,"categoryP":"video","categoryS":"movies","magnet":"?xt=urn:btih:0834a73a18f67a319ec2bc2fb39f74d868ed5204&amp;dn=Stations.of.the.Cross.2014.DVDRip.XviD.HORiZON-ArtSubs&amp;tr=udp%3A%2F%2Ftracker.openbittorrent.com%3A80&amp;tr=udp%3A%2F%2Fopen.demonii.com%3A1337&amp;tr=udp%3A%2F%2Ftracker.coppersurfer.tk%3A6969&amp;tr=udp%3A%2F%2Fexodus.desync.com%3A6969","seeders":21,"leechers":6,"uploader":"lletaif","files":-1,"time":1415413560,"description":"Title:\n\nStations of Cross\n\n\nCountry:\nGermany, 2014\n\n\nLanguage:\nGerman\nIMDB: &lt;a href=&quot;\nhttp://www.imdb.com/title/tt3465916/?ref_=fn_al_tt_2&quot; rel=&quot;nofollow&quot; target=&quot;_NEW&quot;&gt;\nhttp://www.imdb.com/title/tt3465916/?ref_=fn_al_tt_2&lt;/a&gt;\n\n\nPlot:\nMaria is 14 years old. Her family is part of a fundamentalist Catholic community. Maria lives her everyday life in the modern world, yet her heart belongs to Jesus. She wants to follow him, to become a saint and go to heaven - just like all those holy children she's always been told about. So Maria goes through 14 stations, just like Jesus did on his path to Golgatha, and reaches her goal in the end. Not even Christian, a boy she meets at school, can stop her, even if in another world, they might have become friends, or even more. Left behind is a broken family that finds comfort in faith, and the question if all these events were really so inevitable. STATIONS OF THE CROSS is an indictment and, at the same time, the legend of a saint. It's a story of religion, devotion and radical faith, and the film itself comes along just as radical as the subject matter, telling the story in only 14 fixed-angle long shots, allowing the viewer to contemplate the interactions on screen in an entirely different way than in a traditional film. \n\n\nTrivia:\n\nWin Silver Bear - Best Script - Berlin International Film Festival 2014\n\n\nMedia Info:\n\nGeneral\nComplete name                            : Stations.of.the.Cross.2014.DVDRip.XviD.HORiZON-ArtSubs.avi\nFormat                                   : AVI\nFormat/Info                              : Audio Video Interleave\nFile size                                : 1.47 GiB\nDuration                                 : 1h 45mn\nOverall bit rate                         : 1 985 Kbps\n\nVideo\nID                                       : 0\nFormat                                   : MPEG-4 Visual\nFormat profile                           : Advanced Simple@L5\nFormat settings, BVOP                    : 1\nFormat settings, QPel                    : No\nFormat settings, GMC                     : No warppoints\nFormat settings, Matrix                  : Default (MPEG)\nCodec ID                                 : XVID\nCodec ID/Hint                            : XviD\nDuration                                 : 1h 45mn\nBit rate                                 : 1 527 Kbps\nWidth                                    : 720 pixels\nHeight                                   : 304 pixels\nDisplay aspect ratio                     : 2.35:1\nFrame rate                               : 25.000 fps\nColor space                              : YUV\nChroma subsampling                       : 4:2:0\nBit depth                                : 8 bits\nScan type                                : Progressive\nCompression mode                         : Lossy\nBits/(Pixel*Frame)                       : 0.279\nStream size                              : 1.13 GiB (77%)\nWriting library                          : XviD 1.2.1 (UTC 2008-12-04)\n\nAudio\nID                                       : 1\nFormat                                   : AC-3\nFormat/Info                              : Audio Coding 3\nMode extension                           : CM (complete main)\nFormat settings, Endianness              : Big\nCodec ID                                 : 2000\nDuration                                 : 1h 45mn\nBit rate mode                            : Constant\nBit rate                                 : 448 Kbps\nChannel(s)                               : 6 channels\nChannel positions                        : Front: L C R, Side: L R, LFE\nSampling rate                            : 48.0 KHz\nBit depth                                : 16 bits\nCompression mode                         : Lossy\nStream size                              : 339 MiB (23%)\nAlignment                                : Split accross interleaves\nInterleave, duration                     : 40 ms (1.00 video frame)\nInterleave, preload duration             : 500 ms","torrent":{"xt":"urn:btih:0834a73a18f67a319ec2bc2fb39f74d868ed5204","amp;dn":"Stations.of.the.Cross.2014.DVDRip.XviD.HORiZON-ArtSubs","amp;tr":["udp%3A%2F%2Ftracker.openbittorrent.com%3A80","udp%3A%2F%2Fopen.demonii.com%3A1337","udp%3A%2F%2Ftracker.coppersurfer.tk%3A6969","udp%3A%2F%2Fexodus.desync.com%3A6969"],"infoHash":"0834a73a18f67a319ec2bc2fb39f74d868ed5204","infoHashBuffer":{"type":"Buffer","data":[8,52,167,58,24,246,122,49,158,194,188,47,179,159,116,216,104,237,82,4]},"announce":[],"urlList":[]}}